<svg width="64" height="64" viewBox="0 0 64 64" xmlns="http://www.w3.org/2000/svg">
  <!-- Navy background -->
  <rect width="64" height="64" fill="#2c5282"/>
  
  <!-- Triple D design - overlapping, square proportions, white with opacity gradient -->
  <g fill="white" stroke="none">
    <!-- First D - 10% opacity (back layer) -->
    <path opacity="0.1" d="M 4 8 L 4 56 L 22 56 C 32 56 38 50 38 32 C 38 14 32 8 22 8 Z M 8 12 L 22 12 C 29 12 34 16 34 32 C 34 48 29 52 22 52 L 8 52 Z"/>
    
    <!-- Second D - 50% opacity (middle layer) -->
    <path opacity="0.5" d="M 13 8 L 13 56 L 31 56 C 41 56 47 50 47 32 C 47 14 41 8 31 8 Z M 17 12 L 31 12 C 38 12 43 16 43 32 C 43 48 38 52 31 52 L 17 52 Z"/>
    
    <!-- Third D - 100% opacity (front layer) -->
    <path opacity="1.0" d="M 22 8 L 22 56 L 40 56 C 50 56 56 50 56 32 C 56 14 50 8 40 8 Z M 26 12 L 40 12 C 47 12 52 16 52 32 C 52 48 47 52 40 52 L 26 52 Z"/>
  </g>
</svg>